<svg data-name="Layer 1" viewBox="0 0 162.26 65.63" id="svg-1850679046_4581"><defs><linearGradient id="svg-1850679046_4581_a" x1="105.21" y1="63.87" x2="105.21" y2="24.63" gradientUnits="userSpaceOnUse"><stop offset=".03" stop-color="#d500ff"></stop><stop offset=".95" stop-color="#003fff"></stop></linearGradient><linearGradient id="svg-1850679046_4581_b" data-name="Degradado sin nombre 5" x1="19.88" y1="63.87" x2="19.88" y2="1.76" gradientUnits="userSpaceOnUse"><stop offset="0" stop-color="#d500ff"></stop><stop offset="1" stop-color="#003fff"></stop></linearGradient><linearGradient id="svg-1850679046_4581_c" x1="32.52" y1="48.71" x2="32.52" y2="16.92" href="#svg-1850679046_4581_a"></linearGradient><linearGradient id="svg-1850679046_4581_d" x1="32.52" y1="48.71" x2="32.52" y2="16.92" href="#svg-1850679046_4581_a"></linearGradient><linearGradient id="svg-1850679046_4581_e" x1="32.52" y1="48.71" x2="32.52" y2="16.92" href="#svg-1850679046_4581_a"></linearGradient><linearGradient id="svg-1850679046_4581_f" x1="32.52" y1="48.71" x2="32.52" y2="16.92" href="#svg-1850679046_4581_a"></linearGradient><linearGradient id="svg-1850679046_4581_g" x1="32.52" y1="48.71" x2="32.52" y2="16.92" href="#svg-1850679046_4581_a"></linearGradient><linearGradient id="svg-1850679046_4581_h" x1="32.52" y1="48.71" x2="32.52" y2="16.92" href="#svg-1850679046_4581_a"></linearGradient></defs><path d="M52.51 50.07c0-8.06 6.04-13.75 14.56-13.75 4.82 0 8.75 1.84 10.95 5.31.32.5.15 1.16-.36 1.46l-3.12 1.82c-.45.26-1.03.14-1.35-.27-1.59-2.04-3.78-2.97-6.17-2.97-4.63 0-8.16 3.22-8.16 8.41s3.53 8.41 8.16 8.41c2.39 0 4.58-.93 6.17-2.97.32-.41.9-.54 1.35-.27l3.11 1.82c.51.3.68.96.36 1.46-2.21 3.44-6.13 5.36-10.95 5.36-8.51 0-14.56-5.74-14.56-13.8Zm28.87 0c0-8.06 6.04-13.75 14.31-13.75s14.36 5.69 14.36 13.75-5.99 13.8-14.36 13.8-14.31-5.74-14.31-13.8Zm22.32 0c0-5.14-3.43-8.41-8.01-8.41s-7.96 3.27-7.96 8.41 3.43 8.41 7.96 8.41 8.01-3.27 8.01-8.41Zm38.74-22.89v35.3c0 .58-.47 1.04-1.04 1.04h-3.96c-.58 0-1.04-.47-1.04-1.04 0-.87-.99-1.34-1.68-.82-1.96 1.48-4.43 2.21-7.23 2.21-7.81 0-13.6-5.44-13.6-13.8s5.79-13.75 13.6-13.75c2.65 0 5.06.67 7 2.08.7.51 1.67.03 1.67-.83V27.18c0-.58.47-1.04 1.04-1.04h4.21c.58 0 1.04.47 1.04 1.04Zm-6.19 22.89c0-5.14-3.48-8.41-8.01-8.41s-8.01 3.27-8.01 8.41 3.48 8.41 8.01 8.41 8.01-3.27 8.01-8.41Zm13.6-21.67c0-2.12 1.71-3.78 4.03-3.78s4.03 1.56 4.03 3.63c0 2.22-1.66 3.93-4.03 3.93s-4.03-1.66-4.03-3.78Zm1.9 8.22h4.21c.58 0 1.04.47 1.04 1.04v24.82c0 .58-.47 1.04-1.04 1.04h-4.21c-.58 0-1.04-.47-1.04-1.04V37.66c0-.58.47-1.04 1.04-1.04Z" style="fill:#161c34;stroke-width:0"></path><path d="M52.51 50.07c0-8.06 6.04-13.75 14.56-13.75 4.82 0 8.75 1.84 10.95 5.31.32.5.15 1.16-.36 1.46l-3.12 1.82c-.45.26-1.03.14-1.35-.27-1.59-2.04-3.78-2.97-6.17-2.97-4.63 0-8.16 3.22-8.16 8.41s3.53 8.41 8.16 8.41c2.39 0 4.58-.93 6.17-2.97.32-.41.9-.54 1.35-.27l3.11 1.82c.51.3.68.96.36 1.46-2.21 3.44-6.13 5.36-10.95 5.36-8.51 0-14.56-5.74-14.56-13.8Zm28.87 0c0-8.06 6.04-13.75 14.31-13.75s14.36 5.69 14.36 13.75-5.99 13.8-14.36 13.8-14.31-5.74-14.31-13.8Zm22.32 0c0-5.14-3.43-8.41-8.01-8.41s-7.96 3.27-7.96 8.41 3.43 8.41 7.96 8.41 8.01-3.27 8.01-8.41Zm38.74-22.89v35.3c0 .58-.47 1.04-1.04 1.04h-3.96c-.58 0-1.04-.47-1.04-1.04 0-.87-.99-1.34-1.68-.82-1.96 1.48-4.43 2.21-7.23 2.21-7.81 0-13.6-5.44-13.6-13.8s5.79-13.75 13.6-13.75c2.65 0 5.06.67 7 2.08.7.51 1.67.03 1.67-.83V27.18c0-.58.47-1.04 1.04-1.04h4.21c.58 0 1.04.47 1.04 1.04Zm-6.19 22.89c0-5.14-3.48-8.41-8.01-8.41s-8.01 3.27-8.01 8.41 3.48 8.41 8.01 8.41 8.01-3.27 8.01-8.41Zm13.6-21.67c0-2.12 1.71-3.78 4.03-3.78s4.03 1.56 4.03 3.63c0 2.22-1.66 3.93-4.03 3.93s-4.03-1.66-4.03-3.78Zm1.9 8.22h4.21c.58 0 1.04.47 1.04 1.04v24.82c0 .58-.47 1.04-1.04 1.04h-4.21c-.58 0-1.04-.47-1.04-1.04V37.66c0-.58.47-1.04 1.04-1.04Z" style="stroke-width:0;fill:url(#svg-1850679046_4581_a)"></path><path d="M35.4 63.87c-17.12 0-31.06-13.93-31.06-31.06S18.28 1.76 35.4 1.76v7.36c-13.07 0-23.7 10.63-23.7 23.7s10.63 23.7 23.7 23.7v7.36Z" style="fill:url(#svg-1850679046_4581_b);stroke-width:0"></path><path d="M34.89 16.92h7.6v7.6h-7.6zm-4.68 7.6h-7.6v-7.23c0-.2.17-.37.37-.37h7.23v7.6Zm-7.66 4.23h7.6v7.6h-7.6zm12.34 0h7.6v7.6h-7.6zm-4.73 19.96h-7.23c-.2 0-.37-.17-.37-.37v-7.23h7.6v7.6Zm4.73-7.6h7.6v7.6h-7.6z" style="fill:#2b54a1;stroke-width:0"></path><path style="fill:url(#svg-1850679046_4581_c);stroke-width:0" d="M34.89 16.92h7.6v7.6h-7.6z"></path><path d="M30.21 24.52h-7.6v-7.23c0-.2.17-.37.37-.37h7.23v7.6Z" style="fill:url(#svg-1850679046_4581_d);stroke-width:0"></path><path style="fill:url(#svg-1850679046_4581_e);stroke-width:0" d="M22.55 28.75h7.6v7.6h-7.6z"></path><path style="fill:url(#svg-1850679046_4581_f);stroke-width:0" d="M34.89 28.75h7.6v7.6h-7.6z"></path><path d="M30.16 48.71h-7.23c-.2 0-.37-.17-.37-.37v-7.23h7.6v7.6Z" style="fill:url(#svg-1850679046_4581_g);stroke-width:0"></path><path style="fill:url(#svg-1850679046_4581_h);stroke-width:0" d="M34.89 41.11h7.6v7.6h-7.6z"></path><circle cx="42.5" cy="59.94" r="2.97" style="fill:#d500ff;stroke-width:0"></circle><circle cx="42.5" cy="5.82" r="2.97" style="fill:#0003ff;stroke-width:0"></circle></svg>